Coordinates
version=1
nRows=6
nColumns=36
inDegrees=yes

Units are S.I. units (second, meters, Newtons, ...)
If the header above contains a line with 'inDegrees', this indicates whether rotational values are in degrees (yes) or radians (no).

endheader
time	pelvis_tilt	pelvis_list	pelvis_rotation	pelvis_tx	pelvis_ty	pelvis_tz	hip_flexion_r	hip_adduction_r	hip_rotation_r	knee_angle_r	knee_angle_r_beta	ankle_angle_r	subtalar_angle_r	mtp_angle_r	hip_flexion_l	hip_adduction_l	hip_rotation_l	knee_angle_l	knee_angle_l_beta	ankle_angle_l	subtalar_angle_l	mtp_angle_l	lumbar_extension	lumbar_bending	lumbar_rotation	arm_flex_r	arm_add_r	arm_rot_r	elbow_flex_r	pro_sup_r	arm_flex_l	arm_add_l	arm_rot_l	elbow_flex_l	pro_sup_l
      0.33000000	      1.13430349	     -3.54937889	      6.17295442	      0.40661222	      0.97128733	     -0.13060073	     -1.47289914	      9.70798100	      8.31538197	      6.24174632	      0.10893902	      9.30237888	     -2.85719390	     -6.54158356	     26.68693972	     -3.38387551	      4.35636581	     57.71208299	      1.00726587	      1.21657237	     -9.95448228	     -6.54158356	     -8.22901739	      2.51365411	      4.31822633	      2.49235407	     -8.63550029	     -0.78237131	     31.34460851	    106.11891046	      0.29761163	    -14.77315120	     29.13016000	     39.13390654	    110.48307183
      0.34000000	      1.27741017	     -3.25378928	      5.54338878	      0.41768016	      0.97172050	     -0.13035548	     -2.82746939	      9.42478060	      9.28129447	      5.52576728	      0.09644283	      9.65722176	     -2.87132985	     -6.55591355	     26.90216787	     -3.18551951	      3.97602767	     54.86058114	      0.95749777	      1.33669266	     -9.26609124	     -6.55591355	     -8.48776343	      2.16307042	      5.04433082	      3.01993783	     -8.67564100	     -0.83204999	     32.05422397	    106.22451739	     -0.21022825	    -14.80054187	     29.06560421	     38.51743133	    110.43033133
      0.35000000	      1.33605758	     -3.00756959	      4.96394138	      0.42875768	      0.97173967	     -0.13025402	     -4.06119731	      9.15725321	     10.16825576	      4.84164486	      0.08450264	      9.90198031	     -2.99856939	     -6.57441060	     27.13069085	     -3.02075979	      3.68011326	     51.77071125	      0.90356937	      1.40967613	     -8.59044263	     -6.57441060	     -8.62395912	      1.87349635	      5.65172273	      3.52906361	     -8.70640080	     -0.81948248	     32.83326747	    106.36566943	     -0.77029832	    -14.81772825	     29.02717131	     37.85918490	    110.38264801
      0.36000000	      1.18475856	     -2.80538637	      4.44857939	      0.43985096	      0.97119703	     -0.13029276	     -4.98856369	      8.89226556	     10.82761205	      4.27817490	      0.07466824	     10.15605585	     -2.97026844	     -6.58424676	     27.50818394	     -2.84084976	      3.55190234	     48.45688166	      0.84573213	      1.38751105	     -7.95784448	     -6.58424676	     -8.48481416	      1.62200239	      6.10028426	      4.03696304	     -8.72547859	     -0.69270259	     33.55853417	    106.47484406	     -1.43779409	    -14.85691929	     28.97491755	     37.19809319	    110.33130422
      0.37000000	      1.13090676	     -2.66309288	      3.95064861	      0.45099630	      0.97057208	     -0.13039715	     -6.02503648	      8.68278858	     11.48615908	      3.70980299	      0.06474828	     10.48062485	     -2.93026365	     -6.59390996	     27.66127843	     -2.75609731	      3.48575037	     44.88451735	      0.78338261	      1.30853825	     -7.27324585	     -6.59390996	     -8.45925238	      1.46194879	      6.60956785	      4.55500723	     -8.79242013	     -0.48226848	     34.30484733	    106.59556551	     -2.04899763	    -14.81415749	     28.85729565	     36.45276798	    110.26993813
      0.38000000	      0.96988388	     -2.67315235	      3.50941548	      0.46217568	      0.96951488	     -0.13062752	     -6.88640029	      8.61780326	     11.97428024	      3.23741135	      0.05650349	     10.76809722	     -2.83974656	     -6.60095091	     27.86713282	     -2.80242277	      3.58838446	     41.14732249	      0.71815626	      1.26447631	     -6.59603477	     -6.60095091	     -8.26276286	      1.49138104	      7.02667935	      5.05437359	     -8.86420002	     -0.26616816	     35.01228808	    106.70143354	     -2.71892378	    -14.72441724	     28.76280178	     35.75374125	    110.21659769
